<svg width="20" height="15" viewBox="0 0 20 15" fill="none" xmlns="http://www.w3.org/2000/svg">
<path d="M1.06451 6.92742C0.543407 6.92742 0.120966 7.34986 0.120966 7.87097C0.120966 8.39208 0.543407 8.81452 1.06451 8.81452L1.06451 6.92742ZM19.3446 8.53816C19.7131 8.16968 19.7131 7.57226 19.3446 7.20378L13.3399 1.19908C12.9714 0.830597 12.374 0.830597 12.0055 1.19908C11.637 1.56755 11.637 2.16498 12.0055 2.53345L17.343 7.87097L12.0055 13.2085C11.637 13.577 11.637 14.1744 12.0055 14.5429C12.374 14.9113 12.9714 14.9113 13.3399 14.5429L19.3446 8.53816ZM1.06451 8.81452L18.6774 8.81452L18.6774 6.92742L1.06451 6.92742L1.06451 8.81452Z" fill="white"/>
</svg>
