<svg width="15" height="19" viewBox="0 0 15 19" fill="none" xmlns="http://www.w3.org/2000/svg">
<path d="M14.1667 5.33332V13.6667C14.1667 17 13.3333 17.8333 10 17.8333H5.00001C1.66668 17.8333 0.833344 17 0.833344 13.6667V5.33332C0.833344 1.99999 1.66668 1.16666 5.00001 1.16666H10C13.3333 1.16666 14.1667 1.99999 14.1667 5.33332Z" stroke="#292D32" stroke-width="1.5" stroke-linecap="round" stroke-linejoin="round"/>
<path opacity="0.4" d="M9.16668 4.08331H5.83334" stroke="#292D32" stroke-width="1.5" stroke-linecap="round" stroke-linejoin="round"/>
<path opacity="0.4" d="M7.50001 15.4166C8.21338 15.4166 8.79168 14.8383 8.79168 14.125C8.79168 13.4116 8.21338 12.8333 7.50001 12.8333C6.78664 12.8333 6.20834 13.4116 6.20834 14.125C6.20834 14.8383 6.78664 15.4166 7.50001 15.4166Z" stroke="#292D32" stroke-width="1.5" stroke-linecap="round" stroke-linejoin="round"/>
</svg>
